<svg
  width="141"
  height="42"
  viewBox="0 0 141 42"
  fill="none"
  xmlns="http://www.w3.org/2000/svg"
>
  <!-- Original emblem / icon (unchanged) -->
  <path d="M13.221 7.15636C14.4019 7.15636 15.3592 5.68989 15.3592 3.88091C15.3592 2.07194 14.4019 0.605469 13.221 0.605469C12.0402 0.605469 11.0829 2.07194 11.0829 3.88091C11.0829 5.68989 12.0402 7.15636 13.221 7.15636Z" fill="#B36D1B"/>
  <path d="M13.221 7.24393C11.9927 7.24393 10.9954 5.73568 10.9954 3.881C10.9954 2.02631 11.9927 0.518066 13.221 0.518066C14.4493 0.518066 15.4466 2.02631 15.4466 3.881C15.4466 5.73568 14.4493 7.24393 13.221 7.24393ZM13.221 0.696536C12.0907 0.696536 11.1703 2.12779 11.1703 3.8845C11.1703 5.6412 12.0907 7.07246 13.221 7.07246C14.3513 7.07246 15.2716 5.6412 15.2716 3.8845C15.2716 2.12779 14.3513 0.696536 13.221 0.696536Z" fill="black"/>
  <path d="M16.7064 7.15636C17.8873 7.15636 18.8445 5.68989 18.8445 3.88091C18.8445 2.07194 17.8873 0.605469 16.7064 0.605469C15.5255 0.605469 14.5682 2.07194 14.5682 3.88091C14.5682 5.68989 15.5255 7.15636 16.7064 7.15636Z" fill="#B36D1B"/>
  <path d="M16.7064 7.24393C15.4781 7.24393 14.4807 5.73568 14.4807 3.881C14.4807 2.02631 15.4781 0.518066 16.7064 0.518066C17.9346 0.518066 18.932 2.02631 18.932 3.881C18.932 5.73568 17.9346 7.24393 16.7064 7.24393ZM16.7064 0.696536C15.576 0.696536 14.6557 2.12779 14.6557 3.8845C14.6557 5.6412 15.576 7.07246 16.7064 7.07246C17.8367 7.07246 18.757 5.6412 18.757 3.8845C18.757 2.12779 17.8367 0.696536 16.7064 0.696536Z" fill="black"/>
  <path d="M10.5474 37.1289C10.8308 36.2645 11.0793 35.3897 11.2543 34.4973C11.2648 34.4413 11.1913 34.4098 11.1563 34.4588C10.4284 35.5402 9.83702 36.702 9.28411 37.8778C9.28411 37.8778 9.00766 38.4692 8.89218 38.7211C8.87119 38.7631 8.91318 38.8086 8.95517 38.7946C9.39259 38.6581 10.124 38.4412 10.4879 38.3152C10.7994 38.2102 11.1108 38.1017 11.4187 37.9862C11.4117 38.0142 11.4047 38.0422 11.3977 38.0702C11.1773 39.0151 10.9848 39.9669 10.8868 40.9362C10.8798 40.9957 10.9603 41.0167 10.9883 40.9677C11.6252 39.8094 12.1151 38.5811 12.5666 37.3423C12.5666 37.3423 12.7625 36.7929 12.843 36.5655C12.857 36.5235 12.8185 36.485 12.7765 36.4955C12.0731 36.709 11.3173 36.9399 10.6139 37.1989C10.5719 37.2129 10.5334 37.1744 10.5474 37.1324V37.1289Z" fill="#FFE300"/>
  <path d="M10.9428 41.0797C10.9428 41.0797 10.9148 41.0797 10.9008 41.0727C10.8344 41.0517 10.7958 40.9922 10.8028 40.9222C10.9043 39.9179 11.1073 38.9486 11.2963 38.1227C11.0373 38.2172 10.7749 38.3117 10.5159 38.3957C10.2535 38.4867 9.79854 38.6231 9.3996 38.7456C9.24563 38.7911 9.10215 38.8366 8.97967 38.8751C8.92718 38.8926 8.86769 38.8751 8.8327 38.8331C8.79771 38.7911 8.78719 38.7316 8.81168 38.6826L9.20364 37.8393C9.69705 36.7894 10.3059 35.5612 11.0828 34.4063C11.1213 34.3504 11.1913 34.3294 11.2543 34.3539C11.3173 34.3784 11.3523 34.4448 11.3383 34.5113C11.1843 35.3057 10.9673 36.1246 10.6524 37.0869C11.3488 36.8349 12.1011 36.604 12.752 36.4045C12.8045 36.3905 12.857 36.4045 12.8955 36.443C12.934 36.4815 12.9445 36.5375 12.927 36.5865L12.6505 37.3633C12.2481 38.4692 11.7477 39.7639 11.0688 41.0027C11.0443 41.0482 10.9953 41.0762 10.9463 41.0762L10.9428 41.0797ZM11.4222 37.8953C11.4432 37.8953 11.4642 37.9023 11.4817 37.9163C11.5062 37.9373 11.5167 37.9722 11.5097 38.0037C11.5097 38.0177 11.5027 38.0317 11.4992 38.0457C11.4957 38.0597 11.4922 38.0737 11.4887 38.0912C11.3068 38.8786 11.1073 39.8094 10.9988 40.7718C11.6322 39.5925 12.1046 38.3642 12.4861 37.3109L12.7415 36.6005C12.0836 36.7999 11.3348 37.0309 10.6489 37.2829C10.5964 37.3004 10.5404 37.2899 10.5019 37.2514C10.4634 37.2129 10.4494 37.1569 10.4669 37.1079C10.7679 36.1945 10.9813 35.4072 11.1353 34.6583C10.4109 35.7571 9.83702 36.9224 9.3681 37.9198L9.01115 38.6896C9.11613 38.6581 9.23163 38.6231 9.35411 38.5846C9.75304 38.4622 10.2045 38.3257 10.4669 38.2347C10.7749 38.1332 11.0863 38.0212 11.3942 37.9058C11.4047 37.9023 11.4153 37.8988 11.4258 37.8988L11.4222 37.8953Z" fill="black"/>
  <path d="M23.9886 37.1289C23.7052 36.2645 23.4567 35.3897 23.2817 34.4973C23.2712 34.4413 23.3447 34.4098 23.3797 34.4588C24.1076 35.5402 24.699 36.702 25.2519 37.8778C25.2519 37.8778 25.5283 38.4692 25.6438 38.7211C25.6648 38.7631 25.6228 38.8086 25.5808 38.7946C25.1434 38.6581 24.412 38.4412 24.0481 38.3152C23.7366 38.2102 23.4252 38.1017 23.1172 37.9862C23.1242 38.0142 23.1312 38.0422 23.1382 38.0702C23.3587 39.0151 23.5512 39.9669 23.6491 40.9362C23.6561 40.9957 23.5757 41.0167 23.5477 40.9677C22.9108 39.8094 22.4209 38.5811 21.9694 37.3423C21.9694 37.3423 21.7735 36.7929 21.693 36.5655C21.679 36.5235 21.7175 36.485 21.7595 36.4955C22.4628 36.709 23.2187 36.9399 23.9221 37.1989C23.9641 37.2129 24.0026 37.1744 23.9886 37.1324V37.1289Z" fill="#FFE300"/>
  <path d="M23.5932 41.0796C23.5442 41.0796 23.4952 41.0516 23.4707 41.0061C22.7918 39.7709 22.2879 38.4726 21.889 37.3668L21.609 36.5899C21.5915 36.5409 21.602 36.4849 21.6405 36.4464C21.679 36.4079 21.7315 36.3939 21.784 36.4079C22.4384 36.6039 23.1908 36.8384 23.8836 37.0903C23.5687 36.128 23.3517 35.3091 23.1978 34.5148C23.1838 34.4483 23.2188 34.3818 23.2818 34.3573C23.3447 34.3328 23.4147 34.3538 23.4532 34.4098C24.2301 35.5611 24.839 36.7894 25.3324 37.8392L25.7243 38.6825C25.7488 38.7315 25.7383 38.791 25.7033 38.833C25.6683 38.875 25.6089 38.8925 25.5564 38.875C25.4339 38.8365 25.2904 38.7945 25.1364 38.7455C24.7375 38.6231 24.2826 38.4831 24.0201 38.3921C23.7612 38.3046 23.5022 38.2136 23.2433 38.1191C23.4322 38.945 23.6387 39.9143 23.7367 40.9187C23.7437 40.9852 23.7017 41.0481 23.6387 41.0691C23.6247 41.0726 23.6107 41.0761 23.5967 41.0761L23.5932 41.0796ZM21.7945 36.5969L22.05 37.3108C22.4314 38.3641 22.9073 39.5924 23.5372 40.7717C23.4287 39.8094 23.2293 38.8785 23.0473 38.0911C23.0473 38.0771 23.0403 38.0631 23.0368 38.0492C23.0368 38.0352 23.0298 38.0212 23.0263 38.0072C23.0193 37.9757 23.0263 37.9442 23.0543 37.9197C23.0788 37.8987 23.1138 37.8917 23.1418 37.9022C23.4497 38.0177 23.7612 38.1296 24.0691 38.2311C24.3316 38.3221 24.783 38.4586 25.1819 38.5811C25.3044 38.6196 25.4234 38.6545 25.5249 38.686L25.1679 37.9162C24.699 36.9153 24.1251 35.7535 23.4007 34.6547C23.5547 35.4071 23.7682 36.191 24.0691 37.1043C24.0866 37.1568 24.0691 37.2128 24.0341 37.2478C23.9956 37.2863 23.9396 37.2968 23.8871 37.2793C23.2013 37.0273 22.4524 36.7964 21.7945 36.5969Z" fill="black"/>
  <path d="M19.4813 16.3878C19.7333 17.9766 19.5758 20.0482 19.1419 22.2073H19.1489L27.7819 24.7899C27.9674 23.978 28.1319 23.1242 28.2648 22.2493C29.0592 17.0002 28.4188 12.7344 26.3577 9.56398C26.3402 9.53948 26.3227 9.51148 26.3087 9.48699C24.6639 7.00241 21.3325 4.03841 14.7991 4.03491H14.7921C8.25873 4.03491 4.92728 6.99891 3.28256 9.48699C1.17942 12.6645 0.52154 16.9547 1.3229 22.2493C1.45588 23.1277 1.62036 23.9815 1.80582 24.7934H1.81281L10.4459 22.2108C9.79847 18.9949 9.76698 15.9749 10.7783 14.4491C11.0093 14.0992 11.7161 13.0284 14.7921 13.0284C17.8681 13.0284 18.575 14.0992 18.806 14.4491C19.1384 14.9496 19.3589 15.6145 19.4778 16.3913L19.4813 16.3878Z" fill="#EF9024"/>
  <path d="M1.81631 24.79H1.80933C2.5757 28.1809 3.66401 30.886 4.03494 31.7608L12.311 28.2439C11.5167 26.3717 10.8588 24.2511 10.4494 22.2109L1.81631 24.79Z" fill="#C7C7C7"/>
  <path d="M4.03149 31.7608L7.40143 35.0467L15.6775 31.5298L12.3076 28.2439L4.03149 31.7608Z" fill="#737373"/>
  <path d="M10.7818 14.4492C9.77047 15.9784 9.80198 18.9949 10.4494 22.2108H10.4528L13.4938 23.4986C13.2034 21.07 13.3539 18.9389 14.1517 17.7316C14.3827 17.3817 15.0896 16.3108 18.1656 16.3108C18.666 16.3108 19.1034 16.3388 19.4848 16.3878C19.3623 15.611 19.1419 14.9496 18.8129 14.4457C18.582 14.0957 17.8751 13.0249 14.7991 13.0249C11.7231 13.0249 11.0163 14.0957 10.7853 14.4457L10.7818 14.4492Z" fill="#B36D1B"/>
  <path d="M10.4494 22.2109H10.4459C10.8554 24.2546 11.5132 26.3752 12.3076 28.2439L15.674 31.5299C14.6137 29.0383 13.8019 26.1023 13.4904 23.5022L10.4494 22.2109Z" fill="#737373"/>
  <path d="M17.2802 28.2439L20.6466 31.5298L28.9227 35.0467L25.5563 31.7608L17.2802 28.2439Z" fill="#737373"/>
  <path d="M17.2802 28.2439L25.5563 31.7608C25.9307 30.8825 27.0155 28.1774 27.7854 24.79L19.1523 22.2109H19.1453C18.7359 24.2511 18.078 26.3752 17.2837 28.2439H17.2802Z" fill="#C7C7C7"/>
  <path d="M25.5563 31.7606L28.9227 35.0466C29.3041 34.1472 30.4379 31.3267 31.2078 27.8168L27.7854 24.7898C27.019 28.1772 25.9307 30.8858 25.5563 31.7606Z" fill="#737373"/>
  <path d="M26.4207 9.52197L26.3577 9.56397C28.4188 12.7309 29.0627 17.0002 28.2648 22.2493C28.1319 23.1242 27.9674 23.978 27.7819 24.7899L31.2044 27.8169C31.3653 27.082 31.5088 26.3156 31.6278 25.5318C32.4291 20.2407 31.7713 15.9469 29.6716 12.7694C28.9507 11.6811 27.9114 10.5018 26.4172 9.52197H26.4207Z" fill="#B36D1B"/>
  <path d="M28.9227 35.1343C28.9227 35.1343 28.8983 35.1343 28.8878 35.1273L20.6116 31.6104C20.5662 31.5929 20.5452 31.5404 20.5662 31.4949C20.5837 31.4494 20.6361 31.4284 20.6816 31.4494L28.8772 34.9313C29.2552 34.0355 30.3715 31.2255 31.1239 27.7995C31.2918 27.0262 31.4353 26.2598 31.5473 25.5214C32.3452 20.2513 31.6908 15.9785 29.6016 12.8221C28.7478 11.5308 27.6595 10.446 26.3717 9.59912C26.3297 9.57113 26.3192 9.51864 26.3472 9.47664C26.3752 9.43465 26.4277 9.42415 26.4697 9.45215C27.7784 10.313 28.8807 11.4153 29.7486 12.7276C31.8622 15.9226 32.5271 20.2373 31.7188 25.5494C31.6068 26.2913 31.4633 27.0647 31.2918 27.8415C30.5325 31.2989 29.4371 34.06 29.0032 35.0853C28.9927 35.1063 28.9752 35.1238 28.9542 35.1308C28.9437 35.1343 28.9332 35.1378 28.9227 35.1378V35.1343Z" fill="black"/>
  <path d="M7.40136 35.1343C7.36637 35.1343 7.33488 35.1134 7.32088 35.0819C7.30339 35.0364 7.32089 34.9874 7.36638 34.9664L15.562 31.4845C14.4947 28.9474 13.7073 26.0464 13.4063 23.5128C13.0039 20.1429 13.5498 18.4842 14.0782 17.6863C14.3162 17.3259 15.0441 16.2271 18.1655 16.2271C18.645 16.2271 19.0929 16.255 19.4953 16.304C19.5408 16.3075 19.5723 16.346 19.5723 16.3915C19.5723 16.444 19.5268 16.486 19.4743 16.479C19.0789 16.43 18.638 16.402 18.1655 16.402C15.1386 16.402 14.4492 17.4413 14.2252 17.7843C13.4903 18.8936 13.2699 20.8673 13.5813 23.4918C13.8858 26.0394 14.6801 28.9544 15.7579 31.4985C15.7754 31.544 15.7579 31.5929 15.7125 31.6139L7.43635 35.1308C7.43635 35.1308 7.41186 35.1378 7.40136 35.1378V35.1343Z" fill="black"/>
  <path d="M28.9228 35.1342C28.9018 35.1342 28.8773 35.1272 28.8598 35.1097L25.4934 31.8238C25.4584 31.7888 25.4584 31.7328 25.4934 31.7013C25.5284 31.6663 25.5844 31.6663 25.6159 31.7013L28.9823 34.9872C29.0173 35.0222 29.0173 35.0782 28.9823 35.1097C28.9648 35.1272 28.9438 35.1377 28.9193 35.1377L28.9228 35.1342Z" fill="black"/>
  <path d="M20.6467 31.6174C20.6257 31.6174 20.6012 31.6104 20.5837 31.5929L17.2173 28.3069C17.1823 28.2719 17.1823 28.2159 17.2173 28.1844C17.2523 28.1495 17.3083 28.1495 17.3398 28.1844L20.7062 31.4704C20.7412 31.5054 20.7412 31.5614 20.7062 31.5929C20.6887 31.6104 20.6677 31.6209 20.6432 31.6209L20.6467 31.6174Z" fill="black"/>
  <path d="M15.6775 31.6174C15.6565 31.6174 15.632 31.6104 15.6145 31.5929L12.248 28.3069C12.2131 28.2719 12.2131 28.2159 12.248 28.1844C12.283 28.1495 12.339 28.1495 12.3705 28.1844L15.737 31.4704C15.772 31.5054 15.772 31.5614 15.737 31.5929C15.7195 31.6104 15.6985 31.6209 15.674 31.6209L15.6775 31.6174Z" fill="black"/>
  <path d="M7.40146 35.1342C7.38046 35.1342 7.35597 35.1272 7.33847 35.1097L3.97205 31.8238C3.93705 31.7888 3.93705 31.7328 3.97205 31.7013C4.00704 31.6663 4.06302 31.6663 4.09452 31.7013L7.46094 34.9872C7.49594 35.0222 7.49594 35.0782 7.46094 35.1097C7.44345 35.1272 7.42245 35.1377 7.39796 35.1377L7.40146 35.1342Z" fill="black"/>
  <path d="M31.2079 27.9044C31.1869 27.9044 31.1659 27.8974 31.1484 27.8834L27.726 24.8564C27.691 24.8249 27.6875 24.7689 27.719 24.7339C27.7505 24.6989 27.8065 24.6954 27.8414 24.7269L31.2639 27.7539C31.2989 27.7854 31.3024 27.8414 31.2709 27.8764C31.2534 27.8974 31.2289 27.9044 31.2044 27.9044H31.2079Z" fill="black"/>
  <path d="M13.4904 23.5861C13.4904 23.5861 13.4659 23.5861 13.4554 23.5791L10.4144 22.2878C10.3689 22.2703 10.3479 22.2178 10.3689 22.1723C10.3864 22.1268 10.4389 22.1058 10.4844 22.1268L13.5254 23.4181C13.5709 23.4356 13.5919 23.4881 13.5709 23.5336C13.5569 23.5686 13.5254 23.5861 13.4904 23.5861Z" fill="black"/>
  <path d="M4.03148 31.8483C3.99649 31.8483 3.965 31.8273 3.951 31.7958C3.62555 31.0294 2.49874 28.2544 1.71838 24.811C1.52241 23.9466 1.35794 23.0893 1.23546 22.2599C0.430593 16.9478 1.09198 12.633 3.20562 9.43808C4.86084 6.936 8.21677 3.95101 14.7887 3.94751H14.7957C21.3675 3.94751 24.7235 6.936 26.3787 9.43808C26.3962 9.46258 26.4137 9.49057 26.4277 9.51507C28.5028 12.703 29.1467 16.9898 28.3489 22.2599C28.2229 23.0823 28.0619 23.9396 27.8659 24.8075C27.0856 28.2544 25.9588 31.0259 25.6333 31.7958C25.6158 31.8413 25.5633 31.8623 25.5178 31.8413L17.2417 28.3244C17.1962 28.3069 17.1753 28.2544 17.1962 28.2089C17.9906 26.3402 18.6485 24.2056 19.0544 22.1899C19.5129 19.9083 19.6283 17.9066 19.3939 16.4019C19.2679 15.611 19.0474 14.9706 18.7325 14.4947C18.505 14.1518 17.8191 13.1125 14.7922 13.1125C11.7652 13.1125 11.0758 14.1518 10.8518 14.4947C9.94197 15.87 9.823 18.6765 10.5299 22.1934C10.9323 24.2056 11.5937 26.3437 12.3881 28.2089C12.4056 28.2544 12.3881 28.3034 12.3426 28.3244L4.06646 31.8413C4.06646 31.8413 4.04198 31.8483 4.03148 31.8483ZM17.3957 28.1984L25.5108 31.6488C25.8748 30.7845 26.9491 28.0934 27.698 24.7725C27.8939 23.9081 28.0549 23.0543 28.1774 22.2354C28.9718 17.0108 28.3314 12.7625 26.2842 9.61305C26.2667 9.58855 26.2527 9.56056 26.2352 9.53606C24.6045 7.06898 21.2941 4.12598 14.7992 4.12598H14.7922C8.29726 4.12598 4.98682 7.06898 3.3561 9.53956C1.26695 12.696 0.612562 16.9688 1.41043 22.2389C1.53641 23.0648 1.69738 23.9186 1.89335 24.776C2.64572 28.0934 3.71654 30.7845 4.08048 31.6488L12.1956 28.1984C11.4117 26.3402 10.7643 24.2231 10.3619 22.2284C10.026 20.5592 9.86848 18.9915 9.90698 17.6932C9.94897 16.2514 10.2184 15.1421 10.7084 14.4002C10.9463 14.0398 11.6742 12.941 14.7957 12.941C17.9171 12.941 18.645 14.0398 18.883 14.4002C19.2119 14.8937 19.4429 15.5585 19.5689 16.3774C19.8103 17.9031 19.6913 19.9258 19.2294 22.2284C18.8305 24.2266 18.1796 26.3437 17.3957 28.2019V28.1984Z" fill="black"/>
  <path d="M27.7855 24.8774C27.7855 24.8774 27.7715 24.8774 27.7645 24.8774L19.1279 22.2949C19.0824 22.2809 19.0544 22.2319 19.0684 22.1864C19.0824 22.1409 19.1314 22.1129 19.1769 22.1269L27.81 24.706C27.8554 24.72 27.8834 24.769 27.8694 24.8145C27.8589 24.853 27.8239 24.8809 27.7855 24.8809V24.8774Z" fill="black"/>
  <path d="M1.81636 24.8775C1.77787 24.8775 1.74288 24.853 1.73238 24.8145C1.71838 24.769 1.74637 24.72 1.79187 24.706L10.4284 22.1235C10.4739 22.1095 10.5229 22.1375 10.5369 22.1865C10.5509 22.2355 10.5229 22.2809 10.4739 22.2949H10.4704L1.84086 24.874C1.83386 24.874 1.82336 24.8775 1.81636 24.8775Z" fill="black"/>
  <path d="M12.4757 6.71886C13.6565 6.71886 14.6138 5.25239 14.6138 3.44341C14.6138 1.63444 13.6565 0.167969 12.4757 0.167969C11.2948 0.167969 10.3375 1.63444 10.3375 3.44341C10.3375 5.25239 11.2948 6.71886 12.4757 6.71886Z" fill="white"/>
  <path d="M12.4756 6.80643C11.2473 6.80643 10.25 5.29818 10.25 3.4435C10.25 1.58881 11.2473 0.0805664 12.4756 0.0805664C13.7039 0.0805664 14.7012 1.58881 14.7012 3.4435C14.7012 5.29818 13.7039 6.80643 12.4756 6.80643ZM12.4756 0.255537C11.3453 0.255537 10.425 1.68679 10.425 3.4435C10.425 5.2002 11.3453 6.63146 12.4756 6.63146C13.6059 6.63146 14.5263 5.2002 14.5263 3.4435C14.5263 1.68679 13.6059 0.255537 12.4756 0.255537Z" fill="black"/>
  <path d="M15.961 6.71886C17.1419 6.71886 18.0992 5.25239 18.0992 3.44341C18.0992 1.63444 17.1419 0.167969 15.961 0.167969C14.7802 0.167969 13.8229 1.63444 13.8229 3.44341C13.8229 5.25239 14.7802 6.71886 15.961 6.71886Z" fill="white"/>
  <path d="M15.961 6.80643C14.7327 6.80643 13.7354 5.29818 13.7354 3.4435C13.7354 1.58881 14.7327 0.0805664 15.961 0.0805664C17.1893 0.0805664 18.1866 1.58881 18.1866 3.4435C18.1866 5.29818 17.1893 6.80643 15.961 6.80643ZM15.961 0.255537C14.8307 0.255537 13.9103 1.68679 13.9103 3.4435C13.9103 5.2002 14.8307 6.63146 15.961 6.63146C17.0913 6.63146 18.0116 5.2002 18.0116 3.4435C18.0116 1.68679 17.0913 0.255537 15.961 0.255537Z" fill="black"/>
  <path d="M15.8736 4.57027C16.2794 4.57027 16.6084 4.06578 16.6084 3.44346C16.6084 2.82114 16.2794 2.31665 15.8736 2.31665C15.4677 2.31665 15.1387 2.82114 15.1387 3.44346C15.1387 4.06578 15.4677 4.57027 15.8736 4.57027Z" fill="black"/>
  <path d="M15.8735 4.65784C15.4186 4.65784 15.0511 4.11193 15.0511 3.44354C15.0511 2.77516 15.4221 2.22925 15.8735 2.22925C16.3249 2.22925 16.6959 2.77516 16.6959 3.44354C16.6959 4.11193 16.3249 4.65784 15.8735 4.65784ZM15.8735 2.40422C15.5166 2.40422 15.2261 2.86964 15.2261 3.44354C15.2261 4.01745 15.5166 4.48287 15.8735 4.48287C16.2305 4.48287 16.5209 4.01745 16.5209 3.44354C16.5209 2.86964 16.2305 2.40422 15.8735 2.40422Z" fill="black"/>
  <path d="M12.5421 4.57027C12.948 4.57027 13.277 4.06578 13.277 3.44346C13.277 2.82114 12.948 2.31665 12.5421 2.31665C12.1363 2.31665 11.8073 2.82114 11.8073 3.44346C11.8073 4.06578 12.1363 4.57027 12.5421 4.57027Z" fill="black"/>
  <path d="M12.5421 4.65784C12.0872 4.65784 11.7197 4.11193 11.7197 3.44354C11.7197 2.77516 12.0907 2.22925 12.5421 2.22925C12.9935 2.22925 13.3644 2.77516 13.3644 3.44354C13.3644 4.11193 12.9935 4.65784 12.5421 4.65784ZM12.5421 2.40422C12.1851 2.40422 11.8947 2.86964 11.8947 3.44354C11.8947 4.01745 12.1851 4.48287 12.5421 4.48287C12.899 4.48287 13.1895 4.01745 13.1895 3.44354C13.1895 2.86964 12.899 2.40422 12.5421 2.40422Z" fill="black"/>
  <path d="M2.61422 14.498C2.61422 14.498 2.61422 14.498 2.61072 14.498C2.56172 14.498 2.52673 14.4525 2.52673 14.407C2.61772 12.7308 3.13213 11.1841 4.05597 9.80883C5.00431 8.40206 6.39357 7.16328 8.18527 6.13095C8.22726 6.10645 8.27976 6.12045 8.30426 6.16244C8.32875 6.20444 8.31475 6.25693 8.27275 6.28142C6.50555 7.29975 5.13728 8.52104 4.20294 9.90681C3.2966 11.2541 2.78919 12.7693 2.7017 14.414C2.7017 14.4595 2.65971 14.498 2.61422 14.498Z" fill="black"/>
  <path d="M18.1761 27.9045C18.1761 27.9045 18.1446 27.901 18.1341 27.894C18.0921 27.8695 18.0781 27.817 18.1026 27.775C19.079 26.0778 19.6564 22.8723 19.6634 22.8408C19.6704 22.7918 19.7159 22.7603 19.7649 22.7708C19.8138 22.7778 19.8453 22.8233 19.8348 22.8723C19.8278 22.9038 19.2434 26.1407 18.2531 27.8625C18.2356 27.8905 18.2076 27.9079 18.1761 27.9079V27.9045Z" fill="white"/>

  <!-- New text wordmark: HPAI -->
  <!-- NOTE: This uses a font. For a font-independent (outlined) version ask to convert to paths. -->
  <text
    x="51"
    y="31"
    font-family="Inter, 'Helvetica Neue', Arial, sans-serif"
    font-size="18"
    font-weight="600"
    letter-spacing="2"
    fill="white"
    dominant-baseline="alphabetic"
  >
    HPAI
  </text>
</svg>